<svg xmlns="http://www.w3.org/2000/svg" xmlns:svg="http://www.w3.org/2000/svg" id="svg4" fill-rule="evenodd" clip-rule="evenodd" image-rendering="optimizeQuality" shape-rendering="geometricPrecision" text-rendering="geometricPrecision" version="1.1" viewBox="0 0 2599 3333"><metadata id="metadata10"/><path id="path2" d="M576 3333c185-165 312-400 374-641 25-95 127-484 127-484 66 127 261 234 466 234 614 0 1056-564 1056-1267C2599 502 2050-1 1344-1 465-1-1 589-1 1231c0 298 159 670 413 788 38 19 59 10 68-28 6-29 41-166 57-231 5-20 3-39-14-59-84-102-152-290-152-464 0-449 340-884 919-884 500 0 850 340 850 828 0 551-278 933-640 933-200 0-350-165-301-368 58-242 169-503 169-677 0-156-83-286-258-286-205 0-368 211-368 495 0 180 60 302 60 302s-202 853-239 1012c-41 176-25 423-7 584l18 158z" style="fill:#fff"/></svg>